# xmcd
#
# Track frame offsets: 
#        150
#        15056
#        24757
#        35276
#        57370
#        69903
#        81967
#        88377
#        100771
#        120707
#        139254
#        145423
#
# Disc length: 2247 seconds
#
# Revision: 0
# Processed by: cddbd v1.5.2PL0 Copyright (c) Steve Scherf et al.
# Submitted via: ExactAudioCopy v1.0b3
#
DISCID=9508c50c
DTITLE=Kalle Sändare - Boxen e' klar - CD 7 - Karl XII Sändare - Slage
DTITLE=t vid Halden
DYEAR=2014
DGENRE=Comedy
TTITLE0=Kartong med papper
TTITLE1=Doktor Klaus von Hamlets gulnade dokument
TTITLE2=Benidorm ligger det i Spanien
TTITLE3=Angående en Opel Redord
TTITLE4=Härgrundsen har ringt
TTITLE5=Ljudtest för Sonab
TTITLE6=Wrutschkow
TTITLE7=Doktor Klaus Von Hamlets borttappade skor
TTITLE8=Semesterhus i Spanien
TTITLE9=Karolinerhattar
TTITLE10=Fel på telefonen
TTITLE11=Uthyrning av porrfilmer
EXTD=
EXTT0=
EXTT1=
EXTT2=
EXTT3=
EXTT4=
EXTT5=
EXTT6=
EXTT7=
EXTT8=
EXTT9=
EXTT10=
EXTT11=
PLAYORDER=
